<svg width="204" height="73" viewBox="0 0 204 73" fill="none" xmlns="http://www.w3.org/2000/svg">
<g clip-path="url(#clip0_6215_6162)">
<path d="M56.4405 39.9297H64.0778V72.1021H56.4405V67.7811C54.3517 71.3226 51.0698 73.0032 47.1325 73.0032C40.8077 73.0032 36.5703 69.1613 36.5703 61.419V39.9312H44.2076V59.8585C44.2076 64.2396 45.9978 66.6411 49.7574 66.6411C53.8739 66.6411 56.4405 62.9194 56.4405 58.5984V39.9312V39.9297Z" fill="white"/>
<path d="M72.1321 45.8679H68.0156V39.9263H72.1321V32.543H79.7694V39.9263H86.5122V45.8679H79.7694V61.4142C79.7694 64.7754 80.7249 66.5762 84.9609 66.5762H86.3928V72.2189C85.5567 72.6394 83.8276 72.9999 81.7388 72.9999C75.2348 72.9999 72.1321 69.2781 72.1321 62.0765V45.8708V45.8679Z" fill="white"/>
<path d="M105.067 73.0005C95.4004 73.0005 89.4922 66.5784 89.4922 56.074C89.4922 45.5697 95.4586 39.0273 104.768 39.0273C114.078 39.0273 119.925 45.3894 119.925 55.7736V57.5744H97.3698C97.7281 63.4559 100.413 66.697 105.067 66.697C108.647 66.697 111.093 65.0164 112.108 61.5951H120.163C118.433 69.0385 112.705 72.9991 105.067 72.9991V73.0005ZM97.5489 52.7728H111.929C111.212 47.9712 108.767 45.3294 104.768 45.3294C100.77 45.3294 98.2642 47.9097 97.5475 52.7728H97.5489Z" fill="white"/>
<path d="M125.656 40.8269H133.293V45.1479C135.382 41.6665 138.724 39.9258 142.781 39.9258C149.165 39.9258 153.522 43.7677 153.522 51.5701V72.9978H145.885V53.1306C145.885 48.7495 144.035 46.2879 140.156 46.2879C135.92 46.2879 133.293 50.0096 133.293 54.3306V72.9978H125.656V40.8254V40.8269Z" fill="white"/>
<path d="M168.2 29.7852H160.562V37.2271H168.2V29.7852Z" fill="#0058A0"/>
<path d="M168.2 40.8281H160.562V73.0005H168.2V40.8281Z" fill="#66B3FF"/>
<path d="M189.019 63.9941L187.528 61.1135L185.976 63.9941L180.188 72.9966H171.953L183.35 56.3705L172.788 40.8242H181.799L186.871 48.6867L188.422 51.6275L189.973 48.6867L194.986 40.8242H203.16L192.598 56.3705L203.995 72.9966H194.984L189.018 63.9941H189.019Z" fill="white"/>
<path d="M46.8036 0H16.125V14.6012H46.8036C47.6732 14.6012 48.3782 13.892 48.3782 13.0172V1.58393C48.3782 0.709179 47.6732 0 46.8036 0Z" fill="#66B3FF"/>
<path d="M30.4513 29.2013H16.1266V14.6016H0V71.3622C0 72.2663 0.728327 73.0004 1.62854 73.0004H14.4995C15.3983 73.0004 16.1281 72.2678 16.1281 71.3622V43.7995H30.4528C31.4477 43.7995 32.2547 42.9878 32.2547 41.987V31.0123C32.2547 30.0115 31.4477 29.1998 30.4528 29.1998L30.4513 29.2013Z" fill="#66B3FF"/>
<path d="M16.1199 0.0078125V14.5973H0.0078125L16.1199 0.0078125Z" fill="#0058A0"/>
</g>
<defs>
<clipPath id="clip0_6215_6162">
<rect width="204" height="73" fill="white"/>
</clipPath>
</defs>
</svg>
